<svg xmlns="http://www.w3.org/2000/svg" width="852" height="498.999" viewBox="0 0 852 498.999"><defs><style>.a{fill:#3f3d56;}.b{fill:#f2f2f2;}.c{fill:#001834;}.d{opacity:0.1;}.e{fill:#6c63ff;}.f{fill:#fff;}.g{fill:#d0cde1;}.h{fill:#ffb9b9;}.i{fill:#2f2e41;}</style></defs><g transform="translate(0 0)"><path class="a" d="M1021.69,294.361a93.31,93.31,0,1,1,93.31-93.31A93.31,93.31,0,0,1,1021.69,294.361Zm0-185.161a91.852,91.852,0,1,0,91.852,91.852A91.852,91.852,0,0,0,1021.69,109.2Z" transform="translate(-262.999 -107.742)"/><circle class="b" cx="46.854" cy="46.854" r="46.854" transform="translate(712.147 46.723)"/><rect class="c" width="715.258" height="359.332" transform="translate(46.832 93.687)"/><rect class="d" width="268.222" height="183.924" transform="translate(247.786 197.569)"/><circle class="c" cx="18.893" cy="18.893" r="18.893" transform="translate(804.236 8.829)"/><circle class="e" cx="8.515" cy="8.515" r="8.515" transform="translate(59.605 98.795)"/><circle class="e" cx="8.515" cy="8.515" r="8.515" transform="translate(86.001 98.795)"/><circle class="e" cx="8.515" cy="8.515" r="8.515" transform="translate(112.398 98.795)"/><rect class="e" width="17.03" height="17.03" transform="translate(129.428 227.371)"/><rect class="f" width="17.03" height="17.03" transform="translate(647.99 375.532)"/><rect class="e" width="17.03" height="17.03" transform="matrix(0.777, -0.629, 0.629, 0.777, 591.738, 267.829)"/><path class="a" d="M548.758,563.5H14.017V275.693h1.7V561.8H548.758Z" transform="translate(-3.799 -74.718)"/><path class="a" d="M773.09,784.027a11.069,11.069,0,1,1,11.07-11.069,11.069,11.069,0,0,1-11.07,11.069Zm0-20.436a9.366,9.366,0,1,0,9.367,9.367,9.367,9.367,0,0,0-9.367-9.367Z" transform="translate(-217.912 -285.028)"/><path class="a" d="M26.694,376.372A11.07,11.07,0,1,1,37.764,365.3a11.07,11.07,0,0,1-11.069,11.069Zm0-20.436a9.366,9.366,0,1,0,9.366,9.366,9.366,9.366,0,0,0-9.366-9.366Z" transform="translate(-15.625 -174.546)"/><path class="b" d="M241.226,684.789l-7.6,21.287h-17.09V684.363c1.26-27.239,16.545-40.046,17.021-40.438C222.068,655,223.345,693.3,223.345,693.3c7.663-33.208,14.475-34.06,14.475-34.06-4.121,6.19-6.25,34.349-6.378,36.1C231.953,689.43,241.226,684.789,241.226,684.789Z" transform="translate(-70.075 -253.058)"/><path class="b" d="M968.495,692.027v18.392H955.357l-6.446-18.06s7.348,3.679,7.757,8.37c-.1-1.447-1.788-23.723-5.058-28.627,0,0,5.407.673,11.487,27.01,0,0,1-30.373-8.1-39.16C955.382,660.266,967.5,670.416,968.495,692.027Z" transform="translate(-268.563 -257.401)"/><path class="g" d="M651.445,600.977h-20.71l-.138-1.7-1.509-18.932v-.007l-1.567-19.682,9.557-40.6,8.121,8.121v38.687s4.775,7.166,3.82,9.076-1.91,1.91-.955,3.339,1.91,2.391.955,3.346a3.587,3.587,0,0,0,0,4.3c.955.955,2.865,2.384,1.429,3.82s-3.339.474-1.429,5.73a16.788,16.788,0,0,0,1.312,2.8A18.619,18.619,0,0,0,651.445,600.977Z" transform="translate(-181.46 -219.488)"/><path class="h" d="M556.124,343.847,553.258,372.5l29.135,4.3,2.149-16.478,2.15-16.479Z" transform="translate(-149.943 -93.189)"/><path class="d" d="M556.124,343.847,553.258,372.5l29.135,4.3,2.149-16.478,2.15-16.479Z" transform="translate(-149.943 -93.189)"/><circle class="h" cx="22.926" cy="22.926" r="22.926" transform="translate(399.254 214.12)"/><path class="g" d="M504.3,594.05c-.08-.168-.168-.343-.255-.532-.168-.357-.35-.744-.547-1.166-1.268-2.828-2.821-6.852-1.924-8.055,1.436-1.91,1.91-3.82.955-4.775s-3.82.955-.955-1.436,3.82-.955,2.865-3.82-2.865-1.429-.955-2.865,3.346-.955,2.391-2.384-2.865-1.436-.955-2.391,3.346,0,2.865-2.391-.955-1.429,0-2.384a46.075,46.075,0,0,0,2.274-6.087c3.244-9.7,8.711-27.6,8.711-28.306,0-.955-7.64-31.04-7.64-31.04l-3.346-1.917s-14.806,10.031-19.58,32.483-8.121,28.182-8.121,28.182-4.775.955-1.436,4.294,3.346,2.865.481,4.775-4.775-1.91-2.865,1.91,4.294,2.872,2.384,5.256-5.249,2.391-3.339,4.3-1.91,6.211.474,8.121,3.346,2.384,3.346,5.73a17.7,17.7,0,0,0,.226,2.8,14.3,14.3,0,0,0,.35,1.7c.109.445.219.78.292.992Z" transform="translate(-140.053 -212.561)"/><path class="a" d="M490.629,523.066h1.946l.1-.678-2.3.146-8.376.532-15.673.991Z" transform="translate(-126.383 -141.577)"/><path class="g" d="M526.755,564.158l-4.294-14.806-.117-3.222-2.274-61.264,28.182-10.023,4.775-3.827s.955-10.986,2.391-11.941c.517-.343,1.349.058,2.449.991,1.932,1.64,4.7,4.913,8.055,8.566,5.256,5.73,16.242,4.775,19.581,2.865a11.274,11.274,0,0,1,1.334-.663c2.4-.991,3.441-.292,3.441-.292,2.391,1.91-3.339,8.121-3.339,8.121s1.91,4.294,14.325,8.595,14.813,24.363,14.813,24.363-14.813,40.116-14.332,42.981c.408,2.457-1.283,7.72-1.779,9.178v.007c-.08.233-.131.372-.131.372l1.086,18.56.1,1.7H528.774a9.827,9.827,0,0,0-.809-1.7c-.08-.131-.168-.27-.255-.408C523.416,575.617,526.755,564.158,526.755,564.158Z" transform="translate(-152.339 -202.927)"/><path class="i" d="M562.472,424.221s-2.381-3.571-1.465-7.417a22.477,22.477,0,0,0,.641-6.684,66.153,66.153,0,0,1,3.846-9.706c1.923-3.48,1.007-4.945,7.051-6.044s3.571-8.974,19.5-.458a4.672,4.672,0,0,0,4.853,1.831c3.3-.641,4.487,3.937,4.487,3.937s2.2-1.282,3.022.549,6.7-1.1,6.7,11.263-6.687,23.4-6.687,23.4.49-20.794-10.406-22.9-22.617-8.241-25.456-.366A60.025,60.025,0,0,1,562.472,424.221Z" transform="translate(-163.377 -184.239)"/><ellipse class="h" cx="2.149" cy="2.866" rx="2.149" ry="2.866" transform="translate(439.136 239.195)"/><path class="f" d="M355.53,360.07V557.616H668.882V360.07ZM667.184,555.918H357.236V361.776H667.184Z" transform="translate(-107.746 -176.127)"/></g></svg>