<svg xmlns="http://www.w3.org/2000/svg" xmlns:xlink="http://www.w3.org/1999/xlink" width="688.251" height="795" viewBox="0 0 688.251 795"><defs><style>.a,.r{fill:#6c63ff;}.b,.c{opacity:0.5;}.b,.h{fill:url(#a);}.d{fill:url(#b);}.e{fill:#f5f5f5;}.f{fill:#001834;}.g{clip-path:url(#c);}.i{fill:url(#e);}.j{fill:#fda57d;}.k{fill:#fff;}.l,.n,.r{opacity:0.05;}.m{fill:#5a2f32;}.o{fill:url(#f);}.p{fill:url(#g);}.q{fill:url(#i);}.s{fill:#e0e0e0;}</style><linearGradient id="a" x1="0.5" y1="1" x2="0.5" gradientUnits="objectBoundingBox"><stop offset="0" stop-color="gray" stop-opacity="0.251"/><stop offset="0.54" stop-color="gray" stop-opacity="0.122"/><stop offset="1" stop-color="gray" stop-opacity="0.102"/></linearGradient><linearGradient id="b" x1="0.507" x2="0.507" xlink:href="#a"/><clipPath id="c"><rect class="a" width="304.901" height="152.45"/></clipPath><linearGradient id="e" xlink:href="#a"/><linearGradient id="f" y1="1.001" y2="0.001" xlink:href="#a"/><linearGradient id="g" xlink:href="#a"/><linearGradient id="i" xlink:href="#a"/></defs><g transform="translate(-8.55)"><rect class="b" width="312.805" height="153.58" transform="translate(127.653)"/><g class="c" transform="translate(127.077 152.439)"><path class="d" d="M416.49,254.328l1.129,155.838,312.805-2.338L729.3,251.99Zm303.478,144.32-294.274,2.191-.124-16.16,294.274-2.2Zm-.181-24.234-294.274,2.2-.113-16.2,294.308-2.168Zm-.181-24.234-294.274,2.2-.124-16.16,294.274-2.2Zm-.181-24.234-294.274,2.2-.124-16.16,294.274-2.2Zm-.181-24.257-294.274,2.259-.124-16.16,294.274-2.2Zm-.181-24.234-294.274,2.2-.124-16.16,294.274-2.2Z" transform="translate(-416.49 -251.99)"/></g><path class="e" d="M419.5,253.259l1.129,152.45,304.9-2.259L724.4,251ZM715.3,394.416l-286.832,2.146-.113-15.81,286.832-2.146Zm-.181-23.715-286.832,2.146-.113-15.81,286.832-2.146Zm-.181-23.714-286.832,2.146-.113-15.81,286.832-2.146Zm-.181-23.714-286.787,2.259-.113-15.81,286.832-2.146Zm-.181-23.715L427.744,301.7l-.113-15.81,286.832-2.146Zm-.181-23.714-286.832,2.146-.113-15.81,286.832-2.146Z" transform="translate(-289.024 -99.679)"/><rect class="f" width="304.901" height="152.45" transform="translate(132.17 3.388)"/><g class="g" transform="translate(132.17 3.388)"><g class="c" transform="translate(-133.275 2.245)"><path class="h" d="M26.21,250.419l5.048-3.67-2.733-30.863L22.6,202.99,0,211.708Z" transform="translate(0 20.606)"/><path class="i" d="M670.53,125.717c-13.732-6.595-24.008-3.5-31.19,2-9.971,6.877-14.522,18.712-14.522,18.712l-1.954,5.274h0l-9.294,6.776-3.026-6.459s-32.929-58.5-130.034,55.729l-.452-.361s-8.277,10.163-15.81,21.456l-1.073,1.626-.474.734-.678,1.062-.5.79-.723,1.129-.644,1.062-.7,1.129-.5.858-.519.892-.5.881-.519.96-.757,1.434-.418.8-.463.926-.339.711-.44.926-.271.621q-.361.824-.689,1.626l-.248.621c-.113.294-.215.587-.316.87l-.2.6q-.226.678-.406,1.321c-.068.226-.136.463-.181.678h0a12.7,12.7,0,0,0-.429,4.28L323,345.6l6.629,14.432s92.916-36.724,156.245-76.982l-2.665,56.328h0l-.169,3.489s-57.841,47.813-72.894,72.273L384.33,430.042l27.1,39.976,6.313-4.585,3.964-31.755,106.151-84.853s20.123-36.769,20.474-67.564l4.348,16.792s9.249,25.973,15.81,27.035,6.561-20.169,1.976-26.47-2.349-48.355-2.349-48.355l1.129-8.56,16.611-12.072.61-.587.87,5.285,3.388.294v.237h-.09l.158,1.536h0l2.134,40.111,11.756,45.362s9.26,25.973,15.81,27.035,6.561-20.169,1.988-26.47-2.349-48.355-2.349-48.355l4.844-35.007h0l.09-.678.113-.779,9.554.824s9.9-34.149-6.708-49.033L625,182.948l6.188-4.517h0l1.242-.9a28.107,28.107,0,0,0,39.321-.079,19.6,19.6,0,0,0,13.111-3.5c.836-.587,1.649-1.129,2.417-1.739,3.478-2.5,6.358-4.788,6.934-5.895C695.814,163.174,691.783,135.925,670.53,125.717Z" transform="translate(-300.392 -121.988)"/></g><path class="j" d="M556.7,205.08l3.264,61.183L571.369,310.3s9.034,25.25,15.324,26.244,6.369-19.581,1.92-25.7-2.259-46.943-2.259-46.943l7.193-51.946Z" transform="translate(-403.459 -109.002)"/><path class="k" d="M553.34,218,555,228.015l45.972,3.975s9.61-33.155-6.5-47.61Z" transform="translate(-403.894 -111.678)"/><path class="a" d="M479.987,199.87s-28.232,34.555-26.944,46.684L327.48,334.071l6.437,14.014s90.205-35.651,151.7-74.734l-2.744,58.078s-56.158,46.424-70.771,70.127l11.225,18.068L526.4,337.188s30.569-55.865,15.911-86.355Z" transform="translate(-433.089 -109.676)"/><path d="M5.08,210.179l21.93-8.469,5.759,12.535L35.423,244.2l-4.9,3.557Z" transform="translate(-132.619 22.686)"/><path d="M102.308,261.46,77.25,275.937l26.334,38.813,6.121-4.461,3.828-30.818Z" transform="translate(-123.29 30.409)"/><path class="k" d="M606.209,190.186,589.27,153.925s-32.094-57.05-126.85,54.814l62.448,49.913,40.439-29.361Z" transform="translate(-415.646 -117.495)"/><path class="j" d="M.045,0h25.7V45.4a6.1,6.1,0,0,1-6.1,6.1H6.1A6.1,6.1,0,0,1,0,45.4V0Z" transform="translate(203.908 22.757) rotate(53.99)"/><path class="l" d="M586.172,152.1a26.876,26.876,0,0,0,7.239,26.515l15.606-11.293L593.9,146.49Z" transform="translate(-399.776 -116.576)"/><ellipse class="j" cx="27.272" cy="27.215" rx="27.272" ry="27.215" transform="translate(175.865 35.698) rotate(-36.01)"/><path class="l" d="M601.08,144.694l-15.81,10.525,1.9-5.116s12.953-33.72,43.16-19.2c20.643,9.9,24.55,36.362,22.992,39.366-.621,1.129-3.986,3.794-7.9,6.516a18.972,18.972,0,0,1-25.454-3.207c-5.3-6.3-14.511-19.333-12.806-26.809h0c-1.547-2.812-3.568-3.941-6.177-2.055Z" transform="translate(-399.766 -119.06)"/><path class="m" d="M602.16,143.9l-15.81,10.525,1.9-5.116s12.953-33.72,43.16-19.2c20.643,9.9,24.55,36.362,22.992,39.366-.621,1.129-3.986,3.794-7.9,6.516a18.972,18.972,0,0,1-25.454-3.207c-5.3-6.3-14.511-19.333-12.806-26.809h0c-1.547-2.812-3.568-3.941-6.177-2.055Z" transform="translate(-399.627 -119.162)"/><ellipse class="j" cx="6.064" cy="3.026" rx="6.064" ry="3.026" transform="translate(197.787 27.24) rotate(-36.01)"/><path class="l" d="M245.87,101.947l7.216-6.177.09,9.757-1.581-3.76Z" transform="translate(-101.494 8.992)"/><path class="l" d="M254.64,106.45l.158,1.5,33.155,2.586.2-1.412Z" transform="translate(-100.36 10.372)"/><g class="n" transform="translate(-99.206 111.018)"><path d="M450.281,218.31c-5.059,7.623-9.746,15.81-11.191,21.7l3.93-2.744C442.489,232.945,445.764,225.763,450.281,218.31Z" transform="translate(-319.456 -218.31)"/><path d="M486.492,316.9l2.744-58.078C427.748,297.9,337.5,333.555,337.5,333.555l-4.348,6.9s90.205-35.651,151.7-74.735l-2.586,54.69C484.945,318.174,486.492,316.9,486.492,316.9Z" transform="translate(-333.15 -213.074)"/></g><path class="j" d="M512,184.62l3.264,61.183,11.405,44.041s9.034,25.25,15.324,26.244,6.369-19.581,1.92-25.7-2.259-46.943-2.259-46.943l7.193-51.946Z" transform="translate(-409.237 -111.647)"/><path class="l" d="M515.8,158.26s-7.6,20.474-4.37,27.486" transform="translate(-409.414 -115.054)"/><path class="l" d="M209.153,66.68l-.023,3.806,36.419,6.121.44-3.049Z" transform="translate(-106.243 5.231)"/><path class="k" d="M217.39,39.221,209,71.5l36.837,6.866,9.734-40.721Z" transform="translate(-106.26 1.478)"/></g><g class="c" transform="translate(242.036 155.793)"><path class="o" d="M518.29,255.005l7.261,27.452s9.35,25.781,15.979,26.752,6.64-20,2.01-26.244c-2.439-3.286-2.97-16.34-2.925-28.006Z" transform="translate(-518.29 -254.96)"/></g><path class="j" d="M518.81,255l6.99,26.876s9.034,25.25,15.324,26.244,6.369-19.581,1.92-25.7c-2.338-3.218-2.846-16-2.8-27.43Z" transform="translate(-276.187 -99.163)"/><g class="c" transform="translate(287.365 154.709)"><path class="p" d="M587.441,254H558.43l.4,7.272L570.9,306.6s9.508,25.973,16.227,27.012,6.776-20.157,2.033-26.447-2.417-48.31-2.417-48.31Z" transform="translate(-558.43 -254)"/></g><path class="j" d="M586.678,254H559.26l.373,7.069,11.406,44.041s9.034,25.25,15.324,26.244,6.369-19.581,1.92-25.7-2.259-46.943-2.259-46.943Z" transform="translate(-270.958 -99.291)"/><g class="c" transform="translate(353.505 595.121)"><rect class="h" width="343.295" height="18.068"/></g><rect class="f" width="335.391" height="14.68" transform="translate(359.152 595.121)"/><g class="c" transform="translate(8.55 391.65)"><path class="q" d="M733,623.531l1.366.587h0l43.736,18.813,55.74-66.051s8.436-9.441-1.615-15.9-16.363,10.254-16.363,10.254l-42.912,45.916L736.663,598.97l.565-3.817-33.133-19.2a40.646,40.646,0,0,0-2.1-3.512l-.3-1.129-1.66-1.457c-.316-.339-.632-.655-.949-.937l5.488-5.951a29.5,29.5,0,0,0,38.869-23.127,20.756,20.756,0,0,0,7.769,0,21.456,21.456,0,0,0,15.324-12.58,1.569,1.569,0,0,1-1.129.824,20.087,20.087,0,0,0,1.129-2.259c-1.129,2.744-11.722-1.039-13.314-1.886-4.856-2.575-7.352-6.4-9.858-11.078-4.946-9.26-14.093-12.682-24.37-13.483-7.9-.621-15.945-.079-23.229,2.913s-13.709,8.684-16.352,16.115a21.274,21.274,0,0,0-1.129,7.848,19.2,19.2,0,0,0,6.245,15.313,13.4,13.4,0,0,0,1.129.87c.215.858.463,1.694.757,2.53l-1.513,1.491v.09l-9.407,10.163-.486-.147L575.811,571.4v.2c-3.3-2.179-18.238-9.768-55.526.542-14.082,3.9-37.548,3.478-62.73,1.129-17.718-21.987-29.067-90.172-29.067-90.172L424.05,463.82,366.31,477.168s26.651,5.929,31.089,13.348c6.776,2.258,10.965,52.861,12.58,76.79-34.567-5.33-62.911-11.451-62.911-11.451l-20.733-7.419-14.8,51.946s16.34-17.786,31.111-19.31c0,0,74.034,35.606,128.815,28.232,21.287-2.993,41.952,6.042,59.218,8.853a337.373,337.373,0,0,0,45.724,4.449l.181,16.318s60.98-2.631,101.012-15.335c3.038,8.232,5.477,14.172,6.324,14.59l7.261-3.557,40.857,50.286,79.952-32.636s11.846-4.449,5.917-14.839-19.2,1.479-19.2,1.479l-59.219,20.767L714.5,625.033h0l-.971-1.355,5.24-2.575s-.169-.768-.474-2.1l13.754,11.022Z" transform="translate(-311.53 -463.82)"/></g><path class="j" d="M341.1,456.362,322.79,439.4l30.3-32.85,18.305,16.962Z" transform="translate(40.619 52.551)"/><path class="l" d="M652.85,524.83l-13.37,14.5a28.864,28.864,0,0,0,17.7,17.628l13.992-15.166Z" transform="translate(-260.589 -64.283)"/><path class="j" d="M654.8,598.489l73.4,31.619,54.2-64.244s8.21-9.181-1.57-15.46-15.923,9.971-15.923,9.971l-41.692,44.651-53.516-26.82Z" transform="translate(-258.608 -61.164)"/><path class="a" d="M348.74,443.46,386.186,465.1l-5.037,33.912-35.289-28.13Z" transform="translate(43.601 57.322)"/><ellipse class="j" cx="28.796" cy="28.853" rx="28.796" ry="28.853" transform="translate(378.665 435.138)"/><path class="a" d="M656.431,550.736,642.044,546.4,545.56,560.832l.723,65.655s117.364-5.048,130.328-35.346l-8.639-30.3Z" transform="translate(-273.729 -61.495)"/><path class="r" d="M346.85,470.438l34.171,27.249,1.434-11.541L348.612,453.68Z" transform="translate(43.729 58.643)"/><path class="f" d="M572.235,561.636s-12.964-11.541-54.724,0S349.025,545.77,349.025,545.77L344.7,570.3s72,34.634,125.28,27.418c20.745-2.812,40.8,5.963,57.592,8.661a324.19,324.19,0,0,0,44.64,4.325Z" transform="translate(-298.692 -61.577)"/><path d="M352.487,546.586l-20.157-7.216L317.92,589.882s15.81-17.312,30.242-18.757Z" transform="translate(-302.154 -62.404)"/><path class="f" d="M391.88,490.376l30.242-7.216s14.4,86.569,36,93.785H404.844S400.519,493.256,391.88,490.376Z" transform="translate(-292.594 -69.67)"/><path d="M425.583,485.307l-4.325-18.757L365.1,479.48s25.973,5.771,30.242,12.987Z" transform="translate(-296.055 -71.817)"/><path class="l" d="M673.382,498.365c-7.634-.6-15.5-.079-22.585,2.834s-13.325,8.447-15.911,15.674-.915,16.1,4.924,21.083a8.6,8.6,0,0,0,5.07,2.259c3.06.124,5.646-2.123,8-4.077a67.226,67.226,0,0,1,14.455-9.124c4.415-2.055,9.8-3.569,13.98-1.062,1.987,1.2,3.388,3.128,5.025,4.765a20.44,20.44,0,0,0,33.3-6.674c-1.129,2.676-11.394-1.016-12.941-1.841-4.72-2.507-7.16-6.222-9.587-10.773C692.274,502.5,683.387,499.111,673.382,498.365Z" transform="translate(-261.335 -67.733)"/><path d="M673.379,497.085c-7.634-.6-15.5-.079-22.585,2.834s-13.37,8.39-15.911,15.674-.915,16.1,4.924,21.083a8.6,8.6,0,0,0,5.07,2.259c3.06.124,5.646-2.123,8-4.077a67.228,67.228,0,0,1,14.455-9.124c4.415-2.055,9.8-3.568,13.98-1.062,1.987,1.2,3.388,3.128,5.025,4.765a20.44,20.44,0,0,0,33.3-6.674c-1.129,2.676-11.394-1.016-12.941-1.841-4.72-2.507-7.16-6.222-9.587-10.773C692.272,501.2,683.385,497.864,673.379,497.085Z" transform="translate(-261.333 -67.898)"/><ellipse class="j" cx="4.325" cy="2.157" rx="4.325" ry="2.157" transform="translate(395.013 464.816) rotate(-76.65)"/><path class="l" d="M341.92,497.826l.96,1.186,21.659-10.5-.949-1.31Z" transform="translate(43.092 62.976)"/><path class="l" d="M381.485,465.91l-3.535,23.7,1.31.745,2.778-24.177Z" transform="translate(47.749 60.224)"/><rect class="s" width="17.278" height="116.867" transform="translate(298.025 465.425)"/><rect class="s" width="17.278" height="116.867" transform="matrix(0.948, 0.318, -0.318, 0.948, 266.27, 138.221)"/><path class="s" d="M275.749,455.955H269.99V173.73l5.68.3Z" transform="translate(33.794 22.457)"/><path class="j" d="M635.45,603.271l50.4,62.042,77.761-31.744s11.53-4.325,5.714-14.488-18.723,1.445-18.723,1.445l-57.592,20.2L658,592.17Z" transform="translate(-261.11 -55.579)"/><path class="a" d="M617,557.2s21.6,66.367,24.482,67.812l33.878-16.589s-9.6-44.764-20.327-51.6S618.4,551.414,617,557.2Z" transform="translate(-263.495 -60.738)"/><path class="l" d="M622.427,573.12s-1.129,25.386,6.075,29.711" transform="translate(-262.801 -58.041)"/><g class="c" transform="translate(459.069 460.739)"><path class="h" d="M568.487,408,558,418.265,531.233,530.231l-.373-.056-84.4-2.112-38.96,15.4v5.691l119.51-1.265h8.221l5.116-1.107,33.2-136.889Z" transform="translate(-407.5 -408)"/></g><path class="e" d="M547.894,411l-9.994,9.768,6.629,2.405,8.176-10.367Z" transform="translate(68.425 53.126)"/><path class="e" d="M541.276,419.65l6.629,2.405-28.3,121H511.78Z" transform="translate(65.048 54.245)"/><path class="s" d="M518.71,543.967l4.867-1.05L555.185,412.6l-8.176,10.367Z" transform="translate(65.944 53.333)"/><path class="s" d="M411.03,525.386v5.421L524.8,529.6l1.852-5.838Z" transform="translate(52.025 67.702)"/><path class="e" d="M529.094,514.32l-.632-.09-80.336-2.01-37.1,14.658,115.58-1.2" transform="translate(52.025 66.21)"/><path class="s" d="M474.02,521.776,476.279,515H520.32l-2.259,7.9Z" transform="translate(60.167 66.57)"/><path class="a" d="M441.02,520.646,456.83,515h11.293l-5.646,5.646Z" transform="translate(55.902 66.57)"/><g class="c" transform="translate(376.091 609.801)"><rect class="h" width="20.327" height="185.199"/></g><g class="c" transform="translate(658.406 609.801)"><rect class="h" width="20.327" height="185.199"/></g><rect class="f" width="16.939" height="181.811" transform="translate(378.349 609.801)"/><rect class="f" width="16.939" height="181.811" transform="translate(660.665 609.801)"/><path class="s" d="M273,179.326l-26-38.406,2.733-8.119,28.909,46.526Z" transform="translate(30.822 17.166)"/><rect width="4.517" height="11.383" transform="translate(432.095 472.032) rotate(33.6)"/><rect width="33.437" height="2.259" transform="translate(402.808 455.528) rotate(33.62)"/></g></svg>